<?xml version="1.0" standalone="no"?>
<!DOCTYPE svg PUBLIC "-//W3C//DTD SVG 20010904//EN"
 "http://www.w3.org/TR/2001/REC-SVG-20010904/DTD/svg10.dtd">
<svg version="1.0" xmlns="http://www.w3.org/2000/svg"
 width="888.000000pt" height="888.000000pt" viewBox="0 0 888.000000 888.000000"
 preserveAspectRatio="xMidYMid meet">

<g transform="translate(0.000000,888.000000) scale(0.100000,-0.100000)"
fill="#000000" stroke="none">
<path d="M4253 7776 c-167 -54 -300 -186 -353 -350 -11 -34 -10 -40 7 -58 20
-20 20 -19 47 26 30 52 42 57 56 22 5 -13 23 -40 40 -60 l32 -36 -22 -54 c-13
-34 -19 -63 -15 -76 9 -29 19 -17 40 50 10 30 19 57 21 59 2 2 22 -6 46 -17
24 -12 68 -28 98 -35 44 -12 55 -19 53 -33 -1 -11 -5 -55 -9 -100 l-7 -80 59
-19 c50 -16 69 -17 148 -8 50 6 94 9 99 6 4 -2 7 -17 7 -34 0 -23 4 -29 21
-29 20 0 21 4 15 40 -5 33 -3 42 11 46 54 19 155 69 169 85 9 11 21 19 26 19
14 0 9 -123 -7 -154 -19 -36 -19 -36 10 -36 20 0 30 11 55 60 82 162 81 345
-2 504 -41 77 -156 192 -228 228 -128 63 -287 76 -417 34z m192 -28 c-7 -22
-6 -22 7 -4 12 16 22 18 54 12 21 -5 48 -9 59 -10 39 -5 74 -18 78 -30 3 -7
18 -16 35 -19 40 -8 142 -106 142 -136 l0 -23 -28 24 c-15 12 -46 32 -69 43
-28 13 -48 33 -64 63 -23 45 -52 64 -79 53 -10 -4 -6 -7 13 -11 35 -6 70 -56
49 -69 -11 -7 -10 -10 3 -15 12 -4 14 -12 9 -28 -13 -46 -23 -49 -67 -22 l-42
25 33 -28 c18 -15 32 -31 32 -36 0 -11 -62 -47 -81 -47 -9 0 -25 21 -39 50
-30 63 -37 59 -10 -5 25 -58 19 -65 -54 -65 l-49 0 6 53 6 52 -15 -47 c-9 -28
-21 -48 -29 -48 -19 0 -95 31 -95 38 0 3 17 24 38 46 l37 39 -47 -37 c-51 -41
-60 -40 -83 4 -14 26 -13 30 3 40 16 11 16 11 0 6 -14 -4 -18 0 -18 17 0 28
37 70 53 61 7 -4 9 -3 4 1 -4 5 1 17 10 28 17 19 17 20 -3 9 -11 -6 -26 -18
-34 -26 -7 -9 -22 -16 -34 -16 -13 0 -17 -3 -9 -8 8 -5 9 -13 3 -22 -6 -8 -10
-25 -10 -37 0 -15 -10 -28 -29 -37 -15 -8 -49 -31 -75 -51 l-46 -35 0 33 c0
49 46 107 103 128 15 6 27 16 27 23 0 17 107 64 149 65 18 1 45 -6 60 -15 26
-17 26 -17 8 3 -23 26 -13 33 45 33 46 0 49 -1 43 -22z m278 -154 c62 -32 107
-74 107 -101 0 -26 -26 -90 -41 -99 -5 -3 -23 12 -41 33 -18 21 -47 52 -65 70
l-32 31 17 41 c9 22 18 41 20 41 2 0 17 -7 35 -16z m-539 -50 l28 -36 -20 -26
c-12 -15 -37 -50 -57 -79 -23 -34 -41 -50 -50 -47 -16 7 -75 91 -75 109 0 18
111 113 135 114 6 1 23 -15 39 -35z m-190 -31 c-3 -21 -16 -54 -29 -73 -12
-19 -28 -44 -34 -55 -10 -20 -10 -20 -11 1 0 28 62 164 76 164 3 0 2 -17 -2
-37z m866 7 c12 -16 17 -30 11 -30 -6 0 -17 14 -26 30 -9 17 -13 30 -11 30 3
0 14 -13 26 -30z m-133 -103 c30 -40 33 -50 22 -63 -15 -18 -122 -74 -142 -74
-13 0 -68 131 -71 168 0 7 22 25 49 41 l50 28 28 -26 c16 -14 45 -47 64 -74z
m-403 43 c8 0 17 -4 20 -9 6 -9 -28 -179 -38 -188 -7 -7 -140 35 -163 52 -17
13 -17 15 4 57 11 23 35 62 51 85 l31 42 40 -20 c22 -10 47 -19 55 -19z m569
-28 c36 -65 39 -122 8 -186 -22 -43 -41 -60 -41 -34 0 6 -14 42 -31 79 l-31
68 21 44 c11 24 21 54 21 66 0 35 20 21 53 -37z m-355 -76 c13 -48 21 -91 17
-94 -3 -4 -51 -8 -107 -10 l-101 -4 7 78 c12 132 7 125 90 122 l71 -3 23 -89z
m274 -92 c15 -38 27 -77 28 -86 0 -22 -89 -83 -153 -104 -27 -9 -50 -14 -52
-12 -2 2 -9 35 -15 73 -6 39 -13 79 -16 90 -4 17 6 25 60 48 35 16 72 37 82
48 10 11 22 18 28 16 6 -2 23 -35 38 -73z m104 -123 c-8 -32 -22 -74 -30 -92
-14 -34 -14 -34 -15 41 -1 63 3 83 27 127 l27 53 3 -35 c2 -19 -4 -61 -12 -94z
m-340 28 c7 -35 12 -78 13 -95 1 -29 -2 -32 -36 -38 -21 -3 -80 -6 -130 -6
l-93 0 0 39 c0 21 3 66 7 101 l6 62 41 -4 c23 -3 68 -2 101 2 33 4 65 6 70 5
6 -1 15 -30 21 -66z"/>
<path d="M4598 7643 c7 -3 16 -2 19 1 4 3 -2 6 -13 5 -11 0 -14 -3 -6 -6z"/>
<path d="M4230 7630 c-18 -12 -2 -12 25 0 13 6 15 9 5 9 -8 0 -22 -4 -30 -9z"/>
<path d="M3795 7686 c-49 -12 -95 -34 -125 -58 -103 -85 -41 -261 141 -405 59
-46 60 -47 53 -89 l-6 -42 64 -6 c34 -4 85 -9 112 -12 32 -4 47 -2 45 5 -6 18
-173 230 -181 231 -4 0 -11 -18 -14 -40 -4 -22 -11 -40 -16 -40 -18 0 -125
122 -149 169 -30 59 -32 129 -4 168 31 42 119 82 197 90 39 3 79 14 95 24 l28
19 -95 -1 c-52 0 -117 -6 -145 -13z"/>
<path d="M4985 7343 c15 -39 33 -122 40 -182 6 -55 9 -62 20 -48 19 26 25 21
25 -23 0 -86 -55 -139 -175 -170 -166 -42 -398 -18 -604 64 -102 41 -169 50
-85 11 301 -138 714 -173 860 -73 76 52 94 130 50 224 l-23 50 19 38 c11 21
18 39 16 40 -27 19 -139 86 -144 86 -3 0 -3 -8 1 -17z"/>
<path d="M3920 7045 c0 -3 11 -28 26 -56 55 -109 210 -227 339 -258 62 -16
194 -16 260 -1 55 12 168 65 186 86 20 24 -24 17 -75 -12 -52 -29 -64 -27 -46
6 19 35 -3 42 -120 35 -136 -8 -158 -3 -162 38 -2 25 -8 33 -27 35 -22 3 -23
1 -18 -27 6 -27 4 -31 -17 -31 -31 0 -144 38 -183 61 -26 16 -32 28 -38 69 -4
28 -11 50 -15 50 -15 0 -16 -74 -1 -97 7 -13 9 -23 3 -23 -5 0 -17 16 -26 35
-27 55 -86 118 -86 90z m276 -179 c89 -30 91 -32 101 -69 l10 -38 -31 6 c-52
11 -155 66 -181 97 -29 35 -33 54 -7 42 9 -4 58 -21 108 -38z m379 -63 c-9
-20 -18 -39 -20 -42 -10 -10 -215 -13 -215 -4 0 6 -3 24 -6 41 l-6 31 98 4
c55 1 114 4 132 5 l32 2 -15 -37z"/>
<path d="M3044 6840 c-121 -48 -188 -148 -188 -280 -1 -89 22 -146 80 -203 56
-56 108 -79 186 -85 86 -6 142 10 203 56 134 102 154 301 43 427 -82 93 -215
128 -324 85z"/>
<path d="M5595 6843 c-97 -35 -162 -102 -190 -196 -19 -66 -19 -108 2 -175 21
-65 87 -143 147 -174 52 -27 159 -35 222 -18 150 42 241 224 189 380 -49 147
-226 234 -370 183z"/>
<path d="M2500 6583 c-25 -13 -47 -39 -77 -93 -284 -500 -357 -1129 -197
-1690 105 -365 322 -730 592 -994 l60 -58 30 78 c48 127 65 237 59 383 -2 69
-12 153 -21 186 -9 33 -54 139 -101 235 -110 227 -120 265 -118 450 2 256 41
405 147 562 65 97 96 183 96 267 0 112 -39 161 -113 140 -64 -17 -116 -68
-177 -169 -105 -176 -180 -394 -196 -575 -8 -93 -17 -83 -41 46 -25 140 -22
374 6 508 36 170 107 373 182 523 40 79 39 128 -3 173 -41 43 -81 52 -128 28z"/>
<path d="M6233 6581 c-58 -36 -81 -120 -47 -169 53 -76 170 -401 199 -554 32
-171 30 -400 -7 -572 -11 -53 -28 -47 -28 12 0 43 -36 210 -62 292 -51 158
-160 354 -230 415 -73 62 -151 65 -178 7 -41 -90 -14 -227 70 -356 69 -106 96
-163 120 -248 44 -165 53 -402 20 -534 -12 -46 -51 -143 -96 -234 -42 -85 -85
-179 -95 -207 -59 -173 -47 -427 31 -619 12 -30 27 -54 32 -54 14 0 135 128
222 235 170 208 308 457 391 705 179 529 150 1115 -79 1618 -69 151 -115 230
-146 253 -39 29 -80 33 -117 10z"/>
<path d="M1609 5828 c-24 -27 -78 -147 -155 -340 -82 -210 -131 -358 -174
-528 -200 -789 -94 -1431 341 -2075 285 -422 632 -745 1061 -988 264 -150 463
-228 645 -252 50 -6 55 -5 83 23 67 68 28 141 -219 407 -31 33 -99 107 -151
165 -52 57 -122 134 -155 170 -402 437 -714 839 -854 1102 -138 258 -250 609
-297 928 -12 85 -15 156 -11 280 4 153 7 174 41 290 50 172 59 242 53 395 -9
192 -57 388 -105 425 -33 27 -79 26 -103 -2z"/>
<path d="M7123 5835 c-44 -31 -99 -243 -109 -421 -8 -134 5 -233 52 -391 79
-272 64 -573 -50 -968 -166 -579 -380 -895 -1241 -1835 -214 -234 -324 -359
-347 -395 -45 -74 -41 -137 12 -169 28 -16 36 -16 121 -1 134 23 222 55 424
155 209 104 336 181 518 318 403 303 782 781 966 1219 238 567 241 1180 10
1867 -100 296 -233 607 -267 625 -29 15 -64 14 -89 -4z"/>
<path d="M3201 4724 c-134 -67 -171 -219 -145 -594 27 -372 44 -473 109 -635
35 -87 113 -244 165 -332 17 -29 25 -53 19 -53 -19 0 -180 71 -234 104 -147
88 -283 217 -450 426 -126 157 -190 264 -340 560 -164 324 -198 380 -238 393
-41 13 -93 0 -130 -32 -28 -26 -32 -35 -35 -99 -12 -204 179 -741 393 -1107
76 -131 212 -330 289 -425 214 -264 536 -520 880 -701 174 -92 223 -135 276
-242 80 -161 107 -414 97 -892 -4 -159 -10 -307 -13 -328 l-7 -37 577 0 577 0
-8 118 c-12 176 -9 682 5 802 26 221 76 361 160 448 28 28 84 68 137 96 362
194 541 321 771 551 193 192 319 361 478 639 155 270 317 678 361 910 19 100
19 209 0 245 -20 40 -76 65 -130 57 -59 -9 -74 -32 -246 -376 -161 -323 -222
-423 -375 -609 -160 -195 -280 -307 -416 -390 -73 -44 -237 -116 -245 -107 -3
3 20 49 50 103 96 169 162 328 197 478 11 45 28 201 41 359 18 233 20 294 11
375 -17 144 -35 195 -90 250 -56 56 -113 75 -201 69 -146 -10 -211 -138 -211
-415 0 -339 -71 -642 -215 -922 -84 -161 -635 -1052 -649 -1048 -7 2 -200 302
-335 522 -21 33 -86 139 -146 235 -115 185 -218 380 -259 489 -70 184 -114
431 -122 686 -9 284 -43 393 -137 435 -63 29 -150 27 -216 -6z"/>
</g>
</svg>
